<svg xmlns="http://www.w3.org/2000/svg" width="21.977" height="20" viewBox="0 0 21.977 20"><path d="M10.477 8l1.213-3.238L13.977 4l-2.286-.762L10.478 0 9.263 3.238 6.977 4l2.286.762zM6 10.5c0-.906.27-1.75.73-2.456C6.49 8.014 6.246 8 6 8c-.55 0-1.08.073-1.585.212C1.87 8.907 0 11.234 0 14c0 3.312 2.687 6 6 6 3.057 0 5.58-2.285 5.953-5.24-.456.156-.944.24-1.453.24C8.016 15 6 12.984 6 10.5zM14.477 8l-1.214 3.238-2.286.762 2.286.762L14.477 16l1.214-3.238L17.978 12l-2.286-.762zM20.344 5.43L19.477 3l-.867 2.43-1.633.57 1.633.57.867 2.43.867-2.43L21.977 6z"/></svg>