<svg xmlns="http://www.w3.org/2000/svg" width="32" height="20" viewBox="0 0 32 20"><path d="M27.586 8.212C26.66 5.752 24.284 4 21.5 4c-.64 0-1.26.093-1.846.266C18.068 1.706 15.234 0 12 0 7.095 0 3.107 3.924 3.002 8.803 1.208 9.843 0 11.783 0 14c0 3.312 2.687 6 6 6h20c3.312 0 6-2.693 6-6 0-2.766-1.87-5.093-4.414-5.788zM26.003 18H5.997C3.794 18 2 16.21 2 14c0-1.893 1.318-3.482 3.086-3.896C5.03 9.744 5 9.376 5 9c0-3.866 3.134-7 7-7 3.162 0 5.834 2.097 6.702 4.975.77-.61 1.74-.975 2.798-.975 2.316 0 4.225 1.75 4.473 4h.03C28.206 10 30 11.79 30 14c0 2.205-1.79 4-3.997 4z"/></svg>