<svg xmlns="http://www.w3.org/2000/svg" width="22" height="14" viewBox="0 0 22 14"><path d="M21 7l-4-7h-1l-2 3h1l1.333-2h.237L20 7c-.035 0-.068.002-.104.005C19.134 6.285 18.066 6 17 6H4.992c-1.062 0-2.127.284-2.89 1.005C2.07 7.002 2.036 7 2.002 7H2l3.43-6h.237L7 3h1L6 0H5L1 7c-.553 0-1 .444-1 1 0 .553.442 1 1 1h.084C1.03 9.307 1 9.64 1 10.002 1 13 3 14 4.99 14c1.662 0 4.01-.5 4.353-2.688C9.343 11.312 9.5 10 11 10s1.657 1.312 1.657 1.312C13 13.5 15.35 14 16.994 14 19 14 21 13 21 9.998c0-.36-.03-.693-.084-.998H21c.553 0 1-.443 1-1 0-.553-.44-1-1-1z"/></svg>