<svg xmlns="http://www.w3.org/2000/svg" width="22.006" height="22.006" viewBox="0 0 22.006 22.006"><path d="M4.63 6.045c.394.393 1.028.4 1.42.006.39-.39.394-1.02-.006-1.42l-1.4-1.4c-.395-.39-1.027-.4-1.42 0-.392.39-.395 1.02.006 1.42l1.4 1.4zm16.367 3.958h-1.98c-.56 0-1.01.444-1.01 1 0 .553.442 1 1.01 1h1.98c.56 0 1.01-.443 1.01-1 0-.552-.445-1-1.01-1zM4 11.003c0-.552-.444-1-1.01-1H1.01c-.56 0-1.01.444-1.01 1 0 .553.443 1 1.01 1h1.98c.558 0 1.01-.443 1.01-1zM11.003 5c-3.313 0-6 2.687-6 6s2.687 6 6 6c3.312 0 6-2.687 6-6s-2.688-6-6-6zm0 10c-2.21 0-4-1.79-4-4s1.79-4 4-4 4 1.79 4 4-1.79 4-4 4zm-6.373.962l-1.4 1.4c-.395.395-.4 1.027-.007 1.42.39.39 1.02.394 1.42-.006l1.4-1.4c.396-.395.402-1.027.008-1.42-.39-.393-1.02-.394-1.42.006zm12.746-9.917l1.4-1.4c.395-.396.4-1.028.007-1.422-.392-.39-1.02-.393-1.42.007l-1.4 1.4c-.396.395-.4 1.028-.008 1.42.392.39 1.02.394 1.42-.005zm-6.373 11.96c-.553 0-1 .445-1 1.01v1.98c0 .56.444 1.01 1 1.01.553 0 1-.44 1-1.01v-1.98c0-.557-.443-1.01-1-1.01zm6.373-2.043c-.395-.395-1.027-.4-1.42-.007-.39.392-.395 1.02.006 1.42l1.4 1.4c.395.396 1.027.4 1.42.008.392-.39.395-1.02-.006-1.42l-1.4-1.4zM11.003 4c.553 0 1-.443 1-1.01V1.01c0-.558-.443-1.01-1-1.01-.553 0-1 .444-1 1.01v1.98c0 .558.444 1.01 1 1.01z"/></svg>